<svg id="social-icons" data-name="Layer 1" xmlns="http://www.w3.org/2000/svg" width="216" height="996" viewBox="0 0 216 996"><defs><style>.cls-1{fill:#fff;}.cls-2{fill:#000000;}.cls-3{fill:#fff;}</style></defs><title>sprites-social</title><path id="github-lg-alt" class="cls-1" d="M198 977.9c-2.23 0-4.2-.57-5.36.5a2.94 2.94 0 0 0-1 2.24c0 3.47 2.78 3.9 6.35 3.9h.01c3.57 0 6.35-.43 6.35-3.9a2.94 2.94 0 0 0-1-2.24c-1.12-1.06-3.09-.5-5.35-.5zm-3 4.75a1.79 1.79 0 1 1 1.23-1.71 1.53 1.53 0 0 1-1.23 1.71zm6 0a1.8 1.8 0 1 1 1.23-1.71 1.53 1.53 0 0 1-1.23 1.71zM198 960a18 18 0 1 0 18 18 18 18 0 0 0-18-18zm1.64 25.39h-3.29c-1.43 0-7.07-.11-7.07-6.92a5.14 5.14 0 0 1 1.42-3.67 8.46 8.46 0 0 1 .6-4.19 10.65 10.65 0 0 1 4.31 2 10.12 10.12 0 0 1 2.39-.23 10.27 10.27 0 0 1 2.39.23 10.65 10.65 0 0 1 4.31-2 8.43 8.43 0 0 1 .6 4.19 5.14 5.14 0 0 1 1.42 3.67c-.01 6.81-5.65 6.92-7.08 6.92z"/><path id="github-lg" class="cls-2" d="M138 977.9c-2.23 0-4.2-.57-5.36.5a2.94 2.94 0 0 0-1 2.24c0 3.47 2.78 3.9 6.35 3.9h.01c3.57 0 6.35-.43 6.35-3.9a2.94 2.94 0 0 0-1-2.24c-1.12-1.06-3.09-.5-5.35-.5zm-3 4.75a1.79 1.79 0 1 1 1.23-1.71 1.53 1.53 0 0 1-1.23 1.71zm6 0a1.8 1.8 0 1 1 1.23-1.71 1.53 1.53 0 0 1-1.23 1.71zM138 960a18 18 0 1 0 18 18 18 18 0 0 0-18-18zm1.64 25.39h-3.29c-1.43 0-7.07-.11-7.07-6.92a5.14 5.14 0 0 1 1.42-3.67 8.46 8.46 0 0 1 .6-4.19 10.65 10.65 0 0 1 4.31 2 10.12 10.12 0 0 1 2.39-.23 10.27 10.27 0 0 1 2.39.23 10.65 10.65 0 0 1 4.31-2 8.43 8.43 0 0 1 .6 4.19 5.14 5.14 0 0 1 1.42 3.67c-.01 6.81-5.65 6.92-7.08 6.92z"/><path id="github-sm-alt" class="cls-1" d="M70 969.95c-1.24 0-2.33-.32-3 .28a1.63 1.63 0 0 0-.55 1.25c0 1.93 1.54 2.17 3.53 2.17 2 0 3.53-.24 3.53-2.17a1.63 1.63 0 0 0-.55-1.25c-.61-.6-1.7-.28-2.96-.28zm-1.69 2.64a1 1 0 1 1 .68-.95.85.85 0 0 1-.66.94zm3.35 0a1 1 0 1 1 .68-.95.85.85 0 0 1-.67.94zM70 960a10 10 0 1 0 10 10 10 10 0 0 0-10-10zm.91 14.1h-1.82a3.54 3.54 0 0 1-3.93-3.84 2.85 2.85 0 0 1 .79-2 4.7 4.7 0 0 1 .33-2.33 5.92 5.92 0 0 1 2.4 1.09 5.62 5.62 0 0 1 1.33-.13 5.71 5.71 0 0 1 1.33.13 5.92 5.92 0 0 1 2.4-1.09 4.69 4.69 0 0 1 .33 2.33 2.85 2.85 0 0 1 .79 2 3.54 3.54 0 0 1-3.95 3.84z"/><path id="github-sm" class="cls-2" d="M10 969.95c-1.24 0-2.33-.32-3 .28a1.63 1.63 0 0 0-.55 1.25c0 1.93 1.54 2.17 3.53 2.17 2 0 3.53-.24 3.53-2.17a1.63 1.63 0 0 0-.55-1.25c-.61-.6-1.7-.28-2.96-.28zm-1.69 2.64a1 1 0 0 1 0-1.89 1 1 0 0 1 .02 1.88zm3.35 0a1 1 0 0 1 0-1.89 1 1 0 0 1 .01 1.88zM10 960a10 10 0 1 0 10 10 10 10 0 0 0-10-10zm.91 14.1H9.09a3.54 3.54 0 0 1-3.93-3.84 2.85 2.85 0 0 1 .79-2 4.7 4.7 0 0 1 .33-2.33A5.92 5.92 0 0 1 8.67 967a5.62 5.62 0 0 1 1.33-.13 5.71 5.71 0 0 1 1.33.13 5.92 5.92 0 0 1 2.4-1.09 4.69 4.69 0 0 1 .33 2.33 2.85 2.85 0 0 1 .79 2 3.54 3.54 0 0 1-3.94 3.86z"/><path id="dirbbble-lg-alt" class="cls-1" d="M198.49 918l.19-.06c-.16-.35-.33-.71-.52-1.09a27.29 27.29 0 0 1-7.5 1 1.21 1.21 0 0 0 0 .14 7.34 7.34 0 0 0 1.8 4.81 12 12 0 0 1 6.03-4.8zm-4.94 5.87a7.34 7.34 0 0 0 7.26 1 31 31 0 0 0-1.54-5.48 10.12 10.12 0 0 0-5.73 4.45zm9.25-11.41a7.34 7.34 0 0 0-6.38-1.6 37.65 37.65 0 0 1 2.66 4.17 8.29 8.29 0 0 0 3.71-2.6zm-5.34 3.07a44.35 44.35 0 0 0-2.65-4.11 7.38 7.38 0 0 0-4 5 27.49 27.49 0 0 0 6.64-.93zm3.39 3.44a32.73 32.73 0 0 1 1.39 5.08 7.38 7.38 0 0 0 3-4.77 10.89 10.89 0 0 0-3-.41 10 10 0 0 0-1.4.06zM198 900a18 18 0 1 0 18 18 18 18 0 0 0-18-18zm0 26.81a8.81 8.81 0 1 1 8.81-8.81 8.82 8.82 0 0 1-8.81 8.81zm1.73-10.54q.24.51.45 1l.13.32a14 14 0 0 1 1.65-.09 18.22 18.22 0 0 1 3.38.32 7.37 7.37 0 0 0-1.6-4.39 10 10 0 0 1-4.01 2.83z"/><path id="dirbbble-lg" class="cls-2" d="M138.49 918l.19-.06c-.16-.35-.33-.71-.52-1.09a27.29 27.29 0 0 1-7.5 1 1.21 1.21 0 0 0 0 .14 7.34 7.34 0 0 0 1.8 4.81 12 12 0 0 1 6.03-4.8zm-4.94 5.87a7.34 7.34 0 0 0 7.26 1 31 31 0 0 0-1.54-5.48 10.12 10.12 0 0 0-5.73 4.45zm9.25-11.41a7.34 7.34 0 0 0-6.38-1.6 37.65 37.65 0 0 1 2.66 4.17 8.29 8.29 0 0 0 3.71-2.6zm-5.34 3.07a44.35 44.35 0 0 0-2.65-4.11 7.38 7.38 0 0 0-4 5 27.49 27.49 0 0 0 6.64-.93zm3.39 3.44a32.73 32.73 0 0 1 1.39 5.08 7.38 7.38 0 0 0 3-4.77 10.89 10.89 0 0 0-3-.41 10 10 0 0 0-1.4.06zM138 900a18 18 0 1 0 18 18 18 18 0 0 0-18-18zm0 26.81a8.81 8.81 0 1 1 8.81-8.81 8.82 8.82 0 0 1-8.81 8.81zm1.73-10.54q.24.51.45 1l.13.32a14 14 0 0 1 1.65-.09 18.22 18.22 0 0 1 3.38.32 7.37 7.37 0 0 0-1.6-4.39 10 10 0 0 1-4.01 2.83z"/><path id="dirbbble-sm-alt" class="cls-1" d="M70.27 910h.11c-.09-.19-.18-.39-.29-.61a15.16 15.16 0 0 1-4.17.58.67.67 0 0 0 0 .08 4.08 4.08 0 0 0 1 2.67 6.64 6.64 0 0 1 3.35-2.72zm-2.75 3.26a4.08 4.08 0 0 0 4 .53 17.2 17.2 0 0 0-.86-3 5.62 5.62 0 0 0-3.14 2.45zm5.14-6.34a4.08 4.08 0 0 0-3.55-.89 20.92 20.92 0 0 1 1.48 2.32 4.61 4.61 0 0 0 2.07-1.45zm-3 1.71a24.64 24.64 0 0 0-1.47-2.28 4.1 4.1 0 0 0-2.2 2.77 15.27 15.27 0 0 0 3.7-.51zm1.88 1.91a18.18 18.18 0 0 1 .77 2.82 4.1 4.1 0 0 0 1.69-2.67 6.05 6.05 0 0 0-1.66-.23 5.58 5.58 0 0 0-.76.06zM70 900a10 10 0 1 0 10 10 10 10 0 0 0-10-10zm0 14.89a4.89 4.89 0 1 1 4.89-4.89 4.9 4.9 0 0 1-4.89 4.89zm1-5.89q.14.28.25.55l.07.18a7.8 7.8 0 0 1 .92-.05 10.12 10.12 0 0 1 1.88.18 4.09 4.09 0 0 0-.89-2.44A5.57 5.57 0 0 1 71 909z"/><path id="dirbbble-sm" class="cls-2" d="M10.27 910h.11c-.09-.19-.18-.39-.29-.61a15.16 15.16 0 0 1-4.17.58.67.67 0 0 0 0 .08 4.08 4.08 0 0 0 1 2.67 6.64 6.64 0 0 1 3.35-2.72zm-2.75 3.26a4.08 4.08 0 0 0 4 .53 17.2 17.2 0 0 0-.86-3 5.62 5.62 0 0 0-3.14 2.45zm5.14-6.34a4.08 4.08 0 0 0-3.55-.92 20.92 20.92 0 0 1 1.48 2.32 4.61 4.61 0 0 0 2.07-1.42zm-3 1.71a24.64 24.64 0 0 0-1.47-2.28A4.1 4.1 0 0 0 6 909.09a15.27 15.27 0 0 0 3.69-.48zm1.88 1.91a18.18 18.18 0 0 1 .77 2.82 4.1 4.1 0 0 0 1.69-2.67 6.05 6.05 0 0 0-1.66-.23 5.58 5.58 0 0 0-.76.06zM10 900a10 10 0 1 0 10 10 10 10 0 0 0-10-10zm0 14.89a4.89 4.89 0 1 1 4.89-4.89 4.9 4.9 0 0 1-4.89 4.89zm1-5.89q.14.28.25.55l.07.18a7.8 7.8 0 0 1 .92-.05 10.12 10.12 0 0 1 1.88.18 4.09 4.09 0 0 0-.89-2.44A5.57 5.57 0 0 1 11 909z"/><path id="tumblr-lg-alt" class="cls-1" d="M198 840a18 18 0 1 0 18 18 18 18 0 0 0-18-18zm4.83 25.76a10.33 10.33 0 0 1-2 .74 8.52 8.52 0 0 1-1.93.21 6.63 6.63 0 0 1-2.09-.3 4.45 4.45 0 0 1-1.55-.86 3.1 3.1 0 0 1-.89-1.19 5.22 5.22 0 0 1-.25-1.82v-6.12h-1.9V854a5 5 0 0 0 1.74-1 4.74 4.74 0 0 0 1.16-1.49 6.85 6.85 0 0 0 .6-2.22h2.45v4.41h4.09v2.73h-4.09v4.47a7.11 7.11 0 0 0 .16 1.94 1.31 1.31 0 0 0 .59.69 2.48 2.48 0 0 0 1.31.35 4.65 4.65 0 0 0 2.6-.86v2.75z"/><path id="tumblr-lg" class="cls-2" d="M138 840a18 18 0 1 0 18 18 18 18 0 0 0-18-18zm4.83 25.76a10.33 10.33 0 0 1-2 .74 8.52 8.52 0 0 1-1.93.21 6.63 6.63 0 0 1-2.09-.3 4.45 4.45 0 0 1-1.55-.86 3.1 3.1 0 0 1-.89-1.19 5.22 5.22 0 0 1-.25-1.82v-6.12h-1.9V854a5 5 0 0 0 1.74-1 4.74 4.74 0 0 0 1.16-1.49 6.85 6.85 0 0 0 .6-2.22h2.45v4.41h4.09v2.73h-4.09v4.47a7.11 7.11 0 0 0 .16 1.94 1.31 1.31 0 0 0 .59.69 2.48 2.48 0 0 0 1.31.35 4.65 4.65 0 0 0 2.6-.86v2.75z"/><path id="tumblr-sm-alt" class="cls-1" d="M70 840a10 10 0 1 0 10 10 10 10 0 0 0-10-10zm2.68 14.31a5.74 5.74 0 0 1-1.11.41 4.73 4.73 0 0 1-1.07.12 3.68 3.68 0 0 1-1.16-.17 2.47 2.47 0 0 1-.86-.48 1.72 1.72 0 0 1-.49-.66 2.9 2.9 0 0 1-.14-1v-3.4h-1.06v-1.37a2.8 2.8 0 0 0 1-.53 2.63 2.63 0 0 0 .64-.83 3.8 3.8 0 0 0 .34-1.23h1.33v2.45h2.27v1.52H70.1v2.48a4 4 0 0 0 .09 1.08.73.73 0 0 0 .33.38 1.38 1.38 0 0 0 .73.19 2.58 2.58 0 0 0 1.45-.48v1.53z"/><path id="tumblr-sm" class="cls-2" d="M10 840a10 10 0 1 0 10 10 10 10 0 0 0-10-10zm2.68 14.31a5.74 5.74 0 0 1-1.11.41 4.73 4.73 0 0 1-1.07.12 3.68 3.68 0 0 1-1.16-.17 2.47 2.47 0 0 1-.86-.48 1.72 1.72 0 0 1-.48-.65 2.9 2.9 0 0 1-.14-1v-3.4H6.79v-1.37a2.8 2.8 0 0 0 1-.53 2.63 2.63 0 0 0 .64-.83 3.8 3.8 0 0 0 .34-1.23h1.33v2.45h2.27v1.52H10.1v2.48a4 4 0 0 0 .09 1.08.73.73 0 0 0 .33.38 1.38 1.38 0 0 0 .73.19 2.58 2.58 0 0 0 1.45-.48v1.53z"/><path id="medium-lg-alt" class="cls-1" d="M198 780a18 18 0 1 0 18 18 18 18 0 0 0-18-18zm7.88 13.63h-.22a.64.64 0 0 0-.66.66v7.44a.64.64 0 0 0 .66.66h.22v1.75h-5.25v-1.75h.87v-8.14h-.09l-2.68 9.89h-2.36l-2.66-9.89h-.09v8.14h.88v1.75h-4.38v-1.75h.22a.64.64 0 0 0 .66-.66v-7.44a.64.64 0 0 0-.66-.66h-.22v-1.75h5.8l2 7.58h.08l2.05-7.58h5.79v1.75z"/><path id="medium-lg" class="cls-2" d="M138 780a18 18 0 1 0 18 18 18 18 0 0 0-18-18zm7.88 13.63h-.22a.64.64 0 0 0-.66.66v7.44a.64.64 0 0 0 .66.66h.22v1.75h-5.25v-1.75h.87v-8.14h-.09l-2.68 9.89h-2.36l-2.66-9.89h-.09v8.14h.88v1.75h-4.38v-1.75h.22a.64.64 0 0 0 .66-.66v-7.44a.64.64 0 0 0-.66-.66h-.22v-1.75h5.8l2 7.58h.08l2.05-7.58h5.79v1.75z"/><path id="medium-sm-alt" class="cls-1" d="M70 780a10 10 0 1 0 10 10 10 10 0 0 0-10-10zm4.38 7.57h-.13a.36.36 0 0 0-.36.36v4.13a.36.36 0 0 0 .36.36h.12v1h-2.91v-1h.49v-4.52l-1.49 5.49h-1.37l-1.48-5.49v4.52h.49v1h-2.48v-1h.12a.36.36 0 0 0 .36-.36v-4.13a.36.36 0 0 0-.36-.36h-.12v-1h3.22l1.16 4.24 1.14-4.21h3.22v1z"/><path id="medium-sm" class="cls-2" d="M10 780a10 10 0 1 0 10 10 10 10 0 0 0-10-10zm4.38 7.57h-.13a.36.36 0 0 0-.36.36v4.13a.36.36 0 0 0 .36.36h.12v1h-2.91v-1h.49v-4.52l-1.49 5.49H9.09l-1.48-5.49v4.52h.45v1H5.62v-1h.13a.36.36 0 0 0 .36-.36v-4.13a.36.36 0 0 0-.36-.36h-.13v-1h3.23l1.15 4.24 1.14-4.21h3.22v1z"/><path id="flickr-lg-alt" class="cls-1" d="M198 720a18 18 0 1 0 18 18 18 18 0 0 0-18-18zm-4.81 21.75a3.75 3.75 0 1 1 3.72-3.75 3.73 3.73 0 0 1-3.72 3.75zm9.62 0a3.75 3.75 0 1 1 3.72-3.75 3.73 3.73 0 0 1-3.72 3.75z"/><path id="flickr-lg" class="cls-2" d="M138 720a18 18 0 1 0 18 18 18 18 0 0 0-18-18zm-4.81 21.75a3.75 3.75 0 1 1 3.72-3.75 3.73 3.73 0 0 1-3.72 3.75zm9.62 0a3.75 3.75 0 1 1 3.72-3.75 3.73 3.73 0 0 1-3.72 3.75z"/><path id="flickr-sm-alt" class="cls-1" d="M70 720a10 10 0 1 0 10 10 10 10 0 0 0-10-10zm-2.67 12.08a2.08 2.08 0 1 1 2.06-2.08 2.07 2.07 0 0 1-2.06 2.08zm5.34 0a2.08 2.08 0 1 1 2.07-2.08 2.07 2.07 0 0 1-2.07 2.08z"/><path id="flickr-sm" class="cls-2" d="M10 720a10 10 0 1 0 10 10 10 10 0 0 0-10-10zm-2.67 12.08A2.08 2.08 0 1 1 9.39 730a2.07 2.07 0 0 1-2.06 2.08zm5.34 0a2.08 2.08 0 1 1 2.07-2.08 2.07 2.07 0 0 1-2.07 2.08z"/><path id="vine-lg-alt" class="cls-1" d="M198 660a18 18 0 1 0 18 18 18 18 0 0 0-18-18zm3.58 12.1c-.69 0-1.18.66-1.18 1.93 0 2.58 1.64 4.07 3.77 4.07a5.59 5.59 0 0 0 1.23-.14v2a9.56 9.56 0 0 1-2 .23 17 17 0 0 1-4.81 6 1.49 1.49 0 0 1-1.65 0c-1-.62-5-3.87-6.32-14.08h2.87c.73 6.13 2.48 9.26 4.43 11.62a16.08 16.08 0 0 0 2.91-4.11 6.11 6.11 0 0 1-3.09-5.61c0-2.52 1.45-4.43 3.94-4.43s3.73 1.5 3.73 4.09a7.37 7.37 0 0 1-.59 2.9 2.19 2.19 0 0 1-2.45-.79 7.09 7.09 0 0 0 .32-1.87c-.01-1.22-.45-1.81-1.11-1.81z"/><path id="vine-lg" class="cls-2" d="M138 660a18 18 0 1 0 18 18 18 18 0 0 0-18-18zm3.58 12.1c-.69 0-1.18.66-1.18 1.93 0 2.58 1.64 4.07 3.77 4.07a5.59 5.59 0 0 0 1.23-.14v2a9.56 9.56 0 0 1-2 .23 17 17 0 0 1-4.81 6 1.49 1.49 0 0 1-1.65 0c-1-.62-5-3.87-6.32-14.08h2.87c.73 6.13 2.48 9.26 4.43 11.62a16.08 16.08 0 0 0 2.91-4.11 6.11 6.11 0 0 1-3.09-5.61c0-2.52 1.45-4.43 3.94-4.43s3.73 1.5 3.73 4.09a7.37 7.37 0 0 1-.59 2.9 2.19 2.19 0 0 1-2.45-.79 7.09 7.09 0 0 0 .32-1.87c-.01-1.22-.45-1.81-1.11-1.81z"/><path id="vine-sm-alt" class="cls-1" d="M70 660a10 10 0 1 0 10 10 10 10 0 0 0-10-10zm2 6.72c-.39 0-.66.37-.66 1.07a2.06 2.06 0 0 0 2.09 2.26 3.1 3.1 0 0 0 .69-.08v1.12a5.31 5.31 0 0 1-1.12.13 9.45 9.45 0 0 1-2.67 3.34.83.83 0 0 1-.91 0c-.58-.35-2.78-2.15-3.51-7.82h1.59a11.4 11.4 0 0 0 2.46 6.45 8.93 8.93 0 0 0 1.62-2.28 3.39 3.39 0 0 1-1.72-3.12 2.21 2.21 0 0 1 2.14-2.48 2 2 0 0 1 2.07 2.27 4.1 4.1 0 0 1-.33 1.61 1.22 1.22 0 0 1-1.36-.44 3.94 3.94 0 0 0 .18-1c.04-.75-.21-1.03-.56-1.03z"/><path id="vine-sm" class="cls-2" d="M10 660a10 10 0 1 0 10 10 10 10 0 0 0-10-10zm2 6.72c-.39 0-.66.37-.66 1.07a2.06 2.06 0 0 0 2.09 2.26 3.1 3.1 0 0 0 .69-.08v1.12a5.31 5.31 0 0 1-1.12.13 9.45 9.45 0 0 1-2.67 3.34.83.83 0 0 1-.91 0c-.58-.35-2.78-2.15-3.51-7.82h1.57a11.4 11.4 0 0 0 2.46 6.45 8.93 8.93 0 0 0 1.62-2.28 3.39 3.39 0 0 1-1.72-3.12 2.21 2.21 0 0 1 2.16-2.48 2 2 0 0 1 2.07 2.27 4.1 4.1 0 0 1-.33 1.61 1.22 1.22 0 0 1-1.36-.44 3.94 3.94 0 0 0 .18-1c.04-.75-.21-1.03-.56-1.03z"/><path id="periscope-lg-alt" class="cls-1" d="M198 600a18 18 0 1 0 18 18 18 18 0 0 0-18-18zm0 28.93c-1.71 0-8.54-7-8.54-13.33a8.54 8.54 0 1 1 17.08 0c0 6.4-6.83 13.33-8.54 13.33zm0-18.48a5.19 5.19 0 0 0-1.19.14 2.09 2.09 0 1 1-3 2 5.18 5.18 0 1 0 4.19-2.14z"/><path id="periscope-lg" class="cls-3" d="M138 600a18 18 0 1 0 18 18 18 18 0 0 0-18-18zm0 28.93c-1.71 0-8.54-7-8.54-13.33a8.54 8.54 0 1 1 17.08 0c0 6.4-6.83 13.33-8.54 13.33zm0-18.48a5.19 5.19 0 0 0-1.19.14 2.09 2.09 0 1 1-3 2 5.18 5.18 0 1 0 4.19-2.14z"/><path id="periscope-sm-alt" class="cls-1" d="M70 600a10 10 0 1 0 10 10 10 10 0 0 0-10-10zm0 16.07c-1 0-4.74-3.88-4.74-7.4a4.74 4.74 0 1 1 9.49 0c-.01 3.53-3.75 7.4-4.75 7.4zm0-10.27a2.88 2.88 0 0 0-.66.08 1.16 1.16 0 1 1-1.67 1.12 2.88 2.88 0 1 0 2.33-1.19z"/><path id="periscope-sm" class="cls-3" d="M10 600a10 10 0 1 0 10 10 10 10 0 0 0-10-10zm0 16.07c-1 0-4.74-3.88-4.74-7.4a4.74 4.74 0 1 1 9.49 0c-.01 3.53-3.75 7.4-4.75 7.4zm0-10.27a2.88 2.88 0 0 0-.66.08A1.16 1.16 0 1 1 7.67 607a2.88 2.88 0 1 0 2.33-1.19z"/><path id="vimeo-lg-alt" class="cls-1" d="M198 540a18 18 0 1 0 18 18 18 18 0 0 0-18-18zm8.25 14.53c-1 5.47-6.28 10.1-7.88 11.16s-3.06-.43-3.59-1.55c-.61-1.28-2.42-8.2-2.9-8.77s-1.9.58-1.9.58l-.69-.93s2.9-3.53 5.11-4 2.34 3.66 2.9 6 .91 3.49 1.39 3.49 1.39-1.23 2.38-3.13 0-3.57-2-2.38c.78-4.79 8.13-5.94 7.18-.47z"/><path id="vimeo-lg" class="cls-2" d="M138 540a18 18 0 1 0 18 18 18 18 0 0 0-18-18zm8.25 14.53c-1 5.47-6.28 10.1-7.88 11.16s-3.06-.43-3.59-1.55c-.61-1.28-2.42-8.2-2.9-8.77s-1.9.58-1.9.58l-.69-.93s2.9-3.53 5.11-4 2.34 3.66 2.9 6 .91 3.49 1.39 3.49 1.39-1.23 2.38-3.13 0-3.57-2-2.38c.78-4.79 8.13-5.94 7.18-.47z"/><path id="vimeo-sm-alt" class="cls-1" d="M70 540a10 10 0 1 0 10 10 10 10 0 0 0-10-10zm4.58 8.07c-.53 3-3.49 5.61-4.38 6.2a1.42 1.42 0 0 1-2-.86c-.34-.71-1.35-4.56-1.61-4.87s-1.06.32-1.06.32l-.38-.51s1.61-2 2.84-2.21 1.3 2 1.61 3.31.51 1.94.77 1.94.77-.69 1.32-1.74 0-2-1.11-1.32c.42-2.66 4.53-3.33 4-.26z"/><path id="vimeo-sm" class="cls-2" d="M10 540a10 10 0 1 0 10 10 10 10 0 0 0-10-10zm4.58 8.07c-.53 3-3.49 5.61-4.38 6.2a1.42 1.42 0 0 1-2-.86c-.34-.71-1.35-4.56-1.61-4.87s-1.06.32-1.06.32l-.38-.51s1.61-2 2.84-2.21 1.3 2 1.61 3.31.51 1.94.77 1.94.77-.69 1.32-1.74 0-2-1.11-1.32c.42-2.66 4.53-3.33 4-.26z"/><path id="skype-lg-alt" class="cls-1" d="M202.06 497.72a6.52 6.52 0 0 0-1.58-.74 20.75 20.75 0 0 0-2-.55c-.59-.14-1-.25-1.27-.32a3.81 3.81 0 0 1-.74-.3 1.67 1.67 0 0 1-.55-.43.86.86 0 0 1-.18-.55 1.09 1.09 0 0 1 .57-.91 2.83 2.83 0 0 1 1.6-.4 2.54 2.54 0 0 1 1.54.36 3.1 3.1 0 0 1 .82 1.05 2.91 2.91 0 0 0 .55.75 1.14 1.14 0 0 0 .79.26 1.24 1.24 0 0 0 .95-.41 1.31 1.31 0 0 0 .38-.91 2.34 2.34 0 0 0-.29-1.08 3.4 3.4 0 0 0-.89-1 4.66 4.66 0 0 0-1.52-.78 7.07 7.07 0 0 0-2.15-.29 7.59 7.59 0 0 0-2.71.44 3.92 3.92 0 0 0-1.79 1.28 3.13 3.13 0 0 0-.63 1.92 3 3 0 0 0 .6 1.9 4 4 0 0 0 1.58 1.19 13.5 13.5 0 0 0 2.42.74c.7.15 1.27.3 1.69.43a2.49 2.49 0 0 1 1 .56 1.18 1.18 0 0 1 .35.9 1.41 1.41 0 0 1-.68 1.18 3.18 3.18 0 0 1-1.86.49 3.07 3.07 0 0 1-1.34-.25 2.06 2.06 0 0 1-.77-.61 4.81 4.81 0 0 1-.53-1 2.18 2.18 0 0 0-.54-.81 1.18 1.18 0 0 0-.81-.29 1.34 1.34 0 0 0-1 .37 1.21 1.21 0 0 0-.38.9 3.07 3.07 0 0 0 .59 1.71 4.32 4.32 0 0 0 1.52 1.39 6.87 6.87 0 0 0 3.3.71 7.38 7.38 0 0 0 2.88-.52 4.23 4.23 0 0 0 1.87-1.46 3.67 3.67 0 0 0 .64-2.12 3.45 3.45 0 0 0-.37-1.67 3.22 3.22 0 0 0-1.06-1.13zM198 480a18 18 0 1 0 18 18 18 18 0 0 0-18-18zm4.31 28.08a5.19 5.19 0 0 1-2.53-.65 8.77 8.77 0 0 1-1.69.16 9.35 9.35 0 0 1-9.21-9.48 9.81 9.81 0 0 1 .19-1.91 5.56 5.56 0 0 1-.73-2.78 5.43 5.43 0 0 1 5.35-5.5 5.21 5.21 0 0 1 2.84.85 8.89 8.89 0 0 1 1.57-.14 9.35 9.35 0 0 1 9.22 9.48 9.82 9.82 0 0 1-.21 2 5.62 5.62 0 0 1 .56 2.44 5.42 5.42 0 0 1-5.36 5.53z"/><path id="skype-lg" class="cls-2" d="M142.06 497.72a6.52 6.52 0 0 0-1.58-.74 20.75 20.75 0 0 0-2-.55c-.59-.14-1-.25-1.27-.32a3.81 3.81 0 0 1-.74-.3 1.67 1.67 0 0 1-.55-.43.86.86 0 0 1-.18-.55 1.09 1.09 0 0 1 .57-.91 2.83 2.83 0 0 1 1.6-.4 2.54 2.54 0 0 1 1.54.36 3.1 3.1 0 0 1 .82 1.05 2.91 2.91 0 0 0 .55.75 1.14 1.14 0 0 0 .79.26 1.24 1.24 0 0 0 .95-.41 1.31 1.31 0 0 0 .38-.91 2.34 2.34 0 0 0-.29-1.08 3.4 3.4 0 0 0-.89-1 4.66 4.66 0 0 0-1.52-.78 7.07 7.07 0 0 0-2.15-.29 7.59 7.59 0 0 0-2.71.44 3.92 3.92 0 0 0-1.79 1.28 3.13 3.13 0 0 0-.63 1.92 3 3 0 0 0 .6 1.9 4 4 0 0 0 1.58 1.19 13.5 13.5 0 0 0 2.42.74c.7.15 1.27.3 1.69.43a2.49 2.49 0 0 1 1 .56 1.18 1.18 0 0 1 .35.9 1.41 1.41 0 0 1-.68 1.18 3.18 3.18 0 0 1-1.86.49 3.07 3.07 0 0 1-1.34-.25 2.06 2.06 0 0 1-.77-.61 4.81 4.81 0 0 1-.53-1 2.18 2.18 0 0 0-.54-.81 1.18 1.18 0 0 0-.81-.29 1.34 1.34 0 0 0-1 .37 1.21 1.21 0 0 0-.38.9 3.07 3.07 0 0 0 .59 1.71 4.32 4.32 0 0 0 1.52 1.39 6.87 6.87 0 0 0 3.3.71 7.38 7.38 0 0 0 2.88-.52 4.23 4.23 0 0 0 1.87-1.46 3.67 3.67 0 0 0 .64-2.12 3.45 3.45 0 0 0-.37-1.67 3.22 3.22 0 0 0-1.06-1.13zM138 480a18 18 0 1 0 18 18 18 18 0 0 0-18-18zm4.31 28.08a5.19 5.19 0 0 1-2.53-.65 8.77 8.77 0 0 1-1.69.16 9.35 9.35 0 0 1-9.21-9.48 9.81 9.81 0 0 1 .19-1.91 5.56 5.56 0 0 1-.73-2.78 5.43 5.43 0 0 1 5.35-5.5 5.21 5.21 0 0 1 2.84.85 8.89 8.89 0 0 1 1.57-.14 9.35 9.35 0 0 1 9.22 9.48 9.82 9.82 0 0 1-.21 2 5.62 5.62 0 0 1 .56 2.44 5.42 5.42 0 0 1-5.36 5.53z"/><path id="skype-sm-alt" class="cls-1" d="M72.25 489.85a3.62 3.62 0 0 0-.88-.41 11.53 11.53 0 0 0-1.13-.31l-.71-.18a2.12 2.12 0 0 1-.41-.16.93.93 0 0 1-.31-.24.48.48 0 0 1-.1-.31.6.6 0 0 1 .32-.5 1.57 1.57 0 0 1 .89-.22 1.41 1.41 0 0 1 .86.2 1.72 1.72 0 0 1 .46.59 1.61 1.61 0 0 0 .31.42.63.63 0 0 0 .44.14.69.69 0 0 0 .53-.23.73.73 0 0 0 .21-.51 1.3 1.3 0 0 0-.16-.6 1.89 1.89 0 0 0-.5-.58 2.59 2.59 0 0 0-.84-.43 3.93 3.93 0 0 0-1.19-.16 4.22 4.22 0 0 0-1.5.24 2.18 2.18 0 0 0-1 .71 1.74 1.74 0 0 0-.35 1.07 1.67 1.67 0 0 0 .33 1.05 2.22 2.22 0 0 0 .88.66 7.5 7.5 0 0 0 1.34.41c.39.08.71.16.94.24a1.38 1.38 0 0 1 .55.31.66.66 0 0 1 .2.5.78.78 0 0 1-.38.66 1.77 1.77 0 0 1-1 .27 1.7 1.7 0 0 1-.74-.14 1.14 1.14 0 0 1-.43-.34 2.67 2.67 0 0 1-.29-.54 1.21 1.21 0 0 0-.3-.45.66.66 0 0 0-.45-.16.75.75 0 0 0-.54.2.67.67 0 0 0-.21.5 1.7 1.7 0 0 0 .33.95 2.4 2.4 0 0 0 .84.77 3.82 3.82 0 0 0 1.83.39 4.1 4.1 0 0 0 1.6-.29 2.35 2.35 0 0 0 1-.81 2 2 0 0 0 .31-1.16 1.92 1.92 0 0 0-.21-.93 1.79 1.79 0 0 0-.54-.62zM70 480a10 10 0 1 0 10 10 10 10 0 0 0-10-10zm2.4 15.6a2.88 2.88 0 0 1-1.4-.36 4.87 4.87 0 0 1-.94.09 5.2 5.2 0 0 1-5.12-5.27A5.45 5.45 0 0 1 65 489a3.09 3.09 0 0 1-.41-1.54 3 3 0 0 1 3-3.06 2.89 2.89 0 0 1 1.58.47 4.94 4.94 0 0 1 .87-.08 5.19 5.19 0 0 1 5.12 5.27 5.46 5.46 0 0 1-.12 1.13 3.12 3.12 0 0 1 .31 1.36 3 3 0 0 1-2.95 3.05z"/><path id="skype-sm" class="cls-2" d="M12.25 489.85a3.62 3.62 0 0 0-.88-.41 11.53 11.53 0 0 0-1.13-.31l-.71-.18a2.12 2.12 0 0 1-.41-.16.93.93 0 0 1-.31-.24.48.48 0 0 1-.1-.31.6.6 0 0 1 .32-.5 1.57 1.57 0 0 1 .89-.22 1.41 1.41 0 0 1 .86.2 1.72 1.72 0 0 1 .46.59 1.61 1.61 0 0 0 .31.42.63.63 0 0 0 .44.14.69.69 0 0 0 .53-.23.73.73 0 0 0 .21-.51 1.3 1.3 0 0 0-.16-.6 1.89 1.89 0 0 0-.5-.58 2.59 2.59 0 0 0-.84-.43 3.93 3.93 0 0 0-1.19-.16 4.22 4.22 0 0 0-1.5.24 2.18 2.18 0 0 0-1 .71 1.74 1.74 0 0 0-.35 1.07 1.67 1.67 0 0 0 .33 1.05 2.22 2.22 0 0 0 .88.66 7.5 7.5 0 0 0 1.34.41c.39.08.71.16.94.24a1.38 1.38 0 0 1 .55.31.66.66 0 0 1 .2.5.78.78 0 0 1-.38.66 1.77 1.77 0 0 1-1 .27 1.7 1.7 0 0 1-.74-.14 1.14 1.14 0 0 1-.48-.34 2.67 2.67 0 0 1-.29-.54 1.21 1.21 0 0 0-.3-.45.66.66 0 0 0-.45-.16.75.75 0 0 0-.54.2.67.67 0 0 0-.21.5 1.7 1.7 0 0 0 .33.95 2.4 2.4 0 0 0 .84.77 3.82 3.82 0 0 0 1.83.39 4.1 4.1 0 0 0 1.6-.29 2.35 2.35 0 0 0 1-.81 2 2 0 0 0 .36-1.16 1.92 1.92 0 0 0-.21-.93 1.79 1.79 0 0 0-.54-.62zM10 480a10 10 0 1 0 10 10 10 10 0 0 0-10-10zm2.4 15.6a2.88 2.88 0 0 1-1.4-.36 4.87 4.87 0 0 1-.94.09 5.2 5.2 0 0 1-5.12-5.27A5.45 5.45 0 0 1 5 489a3.09 3.09 0 0 1-.41-1.54 3 3 0 0 1 3-3.06 2.89 2.89 0 0 1 1.58.47 4.94 4.94 0 0 1 .87-.08 5.19 5.19 0 0 1 5.12 5.27 5.46 5.46 0 0 1-.12 1.13 3.12 3.12 0 0 1 .31 1.36 3 3 0 0 1-2.95 3.05z"/><path id="youtube-lg-alt" class="cls-1" d="M201 437.69l-4.21-2a.44.44 0 0 0-.67.43v3.7a.44.44 0 0 0 .67.43l4.21-2c.37-.11.37-.39 0-.56zM198 420a18 18 0 1 0 18 18 18 18 0 0 0-18-18zm0 25.31c-9.21 0-9.37-.83-9.37-7.31s.16-7.31 9.37-7.31 9.37.83 9.37 7.31-.16 7.31-9.37 7.31z"/><path id="youtube-lg" class="cls-2" d="M141 437.69l-4.21-2a.44.44 0 0 0-.67.43v3.7a.44.44 0 0 0 .67.43l4.21-2c.37-.11.37-.39 0-.56zM138 420a18 18 0 1 0 18 18 18 18 0 0 0-18-18zm0 25.31c-9.21 0-9.37-.83-9.37-7.31s.16-7.31 9.37-7.31 9.37.83 9.37 7.31-.16 7.31-9.37 7.31z"/><path id="youtube-sm-alt" class="cls-1" d="M71.67 429.83l-2.34-1.09a.24.24 0 0 0-.33.26v2a.24.24 0 0 0 .37.24l2.34-1.09c.16-.07.16-.23-.04-.32zM70 420a10 10 0 1 0 10 10 10 10 0 0 0-10-10zm0 14.06c-5.12 0-5.21-.46-5.21-4.06s.09-4.06 5.21-4.06 5.21.46 5.21 4.06-.09 4.06-5.21 4.06z"/><path id="youtube-sm" class="cls-2" d="M11.67 429.83l-2.34-1.09A.24.24 0 0 0 9 429v2a.24.24 0 0 0 .37.24l2.34-1.09c.16-.07.16-.23-.04-.32zM10 420a10 10 0 1 0 10 10 10 10 0 0 0-10-10zm0 14.06c-5.12 0-5.21-.46-5.21-4.06s.09-4.06 5.21-4.06 5.21.46 5.21 4.06-.09 4.06-5.21 4.06z"/><path id="email-lg-alt" class="cls-1" d="M198 360a18 18 0 1 0 18 18 18 18 0 0 0-18-18zm-7.07 12.38H205c.75 0 .36 1 0 1.21l-6.25 3.78a1.62 1.62 0 0 1-1.51 0l-6.24-3.79c-.43-.25-.81-1.2-.07-1.2zm14.57 10.31a1.09 1.09 0 0 1-.83.94h-13.34a1.09 1.09 0 0 1-.83-.94v-6.84c0-.17 0-.4.32-.21l6.41 3.78a1.62 1.62 0 0 0 1.51 0l6.44-3.78c.33-.19.32 0 .32.21v6.84z"/><path id="email-lg" class="cls-2" d="M138 360a18 18 0 1 0 18 18 18 18 0 0 0-18-18zm-7.07 12.38H145c.75 0 .36 1 0 1.21l-6.25 3.78a1.62 1.62 0 0 1-1.51 0l-6.24-3.79c-.43-.25-.81-1.2-.07-1.2zm14.57 10.31a1.09 1.09 0 0 1-.83.94h-13.34a1.09 1.09 0 0 1-.83-.94v-6.84c0-.17 0-.4.32-.21l6.41 3.78a1.62 1.62 0 0 0 1.51 0l6.44-3.78c.33-.19.32 0 .32.21v6.84z"/><path id="email-sm-alt" class="cls-1" d="M70 360a10 10 0 1 0 10 10 10 10 0 0 0-10-10zm-3.93 6.88h7.83c.42 0 .2.53 0 .67l-3.47 2.1a.9.9 0 0 1-.84 0l-3.47-2.1c-.25-.14-.46-.67-.05-.67zm8.09 5.73a.6.6 0 0 1-.46.52h-7.4a.6.6 0 0 1-.46-.52v-3.8c0-.1 0-.22.18-.11l3.56 2.1a.9.9 0 0 0 .84 0l3.58-2.1c.18-.11.18 0 .18.11v3.8z"/><path id="email-sm" class="cls-2" d="M10 360a10 10 0 1 0 10 10 10 10 0 0 0-10-10zm-3.93 6.88h7.83c.42 0 .2.53 0 .67l-3.47 2.1a.9.9 0 0 1-.84 0l-3.47-2.1c-.25-.14-.46-.67-.05-.67zm8.09 5.73a.6.6 0 0 1-.46.52H6.3a.6.6 0 0 1-.46-.52v-3.8c0-.1 0-.22.18-.11l3.56 2.1a.9.9 0 0 0 .84 0l3.58-2.1c.18-.11.18 0 .18.11v3.8z"/><path id="google-lg-alt" class="cls-1" d="M198 300a18 18 0 1 0 18 18 18 18 0 0 0-18-18zm-1 25.73a6.77 6.77 0 0 1-2.82.61h-.28c-.74 0-4.39-.17-4.39-3.5s4-3.53 5.2-3.53a2.72 2.72 0 0 1-.56-1.89h-.26a4 4 0 0 1-2.11-.56 3.34 3.34 0 0 1-1.41-3c0-4 4.36-4.16 4.41-4.16h4.36v.1c0 .49-.88.58-1.47.66a4.17 4.17 0 0 0-.72.13c1.1.59 1.28 1.52 1.28 2.9a3.66 3.66 0 0 1-1.27 3 1.57 1.57 0 0 0-.72 1 2.18 2.18 0 0 0 .94 1.2 4.51 4.51 0 0 1 2 3.4 3.78 3.78 0 0 1-2.18 3.64zm9.47-7.73h-2.81v2.81h-1.87V318h-2.81v-1.87h2.81v-2.81h1.87v2.81h2.81V318zm-11.77 2.16h-.29a3.6 3.6 0 0 0-2.16.88 2.2 2.2 0 0 0-.79 1.76c.08 1.33 1.52 2.11 3.25 2s2.85-1.11 2.77-2.44a2.52 2.52 0 0 0-2.81-2.2zm1.64-7.25c-.45-1.59-1.18-2.07-2.32-2.07a1.41 1.41 0 0 0-.36.05 1.72 1.72 0 0 0-1.1 1.16 3.27 3.27 0 0 0 0 2 2.72 2.72 0 0 0 2.22 2.27 1.24 1.24 0 0 0 .36-.05c.95-.27 1.59-1.86 1.17-3.36z"/><path id="google-lg" class="cls-2" d="M138 300a18 18 0 1 0 18 18 18 18 0 0 0-18-18zm-1 25.73a6.77 6.77 0 0 1-2.82.61h-.28c-.74 0-4.39-.17-4.39-3.5s4-3.53 5.2-3.53a2.72 2.72 0 0 1-.56-1.89h-.26a4 4 0 0 1-2.11-.56 3.34 3.34 0 0 1-1.41-3c0-4 4.36-4.16 4.41-4.16h4.36v.1c0 .49-.88.58-1.47.66a4.17 4.17 0 0 0-.72.13c1.1.59 1.28 1.52 1.28 2.9a3.66 3.66 0 0 1-1.27 3 1.57 1.57 0 0 0-.72 1 2.18 2.18 0 0 0 .94 1.2 4.51 4.51 0 0 1 2 3.4 3.78 3.78 0 0 1-2.18 3.64zm9.47-7.73h-2.81v2.81h-1.87V318h-2.81v-1.87h2.81v-2.81h1.87v2.81h2.81V318zm-11.77 2.16h-.29a3.6 3.6 0 0 0-2.16.88 2.2 2.2 0 0 0-.79 1.76c.08 1.33 1.52 2.11 3.25 2s2.85-1.11 2.77-2.44a2.52 2.52 0 0 0-2.81-2.2zm1.64-7.25c-.45-1.59-1.18-2.07-2.32-2.07a1.41 1.41 0 0 0-.36.05 1.72 1.72 0 0 0-1.1 1.16 3.27 3.27 0 0 0 0 2 2.72 2.72 0 0 0 2.22 2.27 1.24 1.24 0 0 0 .36-.05c.95-.27 1.59-1.86 1.17-3.36z"/><path id="google-sm-alt" class="cls-1" d="M70 300a10 10 0 1 0 10 10 10 10 0 0 0-10-10zm-.58 14.29a3.76 3.76 0 0 1-1.57.34h-.13c-.41 0-2.44-.09-2.44-1.94s2.21-2 2.89-2a1.51 1.51 0 0 1-.31-1.05h-.12a2.22 2.22 0 0 1-1.17-.31 1.86 1.86 0 0 1-.78-1.69c0-2.22 2.42-2.31 2.45-2.31h2.42v.05c0 .27-.49.32-.82.37a2.31 2.31 0 0 0-.4.07 1.53 1.53 0 0 1 .71 1.61 2 2 0 0 1-.7 1.66.87.87 0 0 0-.4.57 1.21 1.21 0 0 0 .52.67 2.51 2.51 0 0 1 1.09 1.89 2.1 2.1 0 0 1-1.24 2.07zm5.27-4.29h-1.57v1.56h-1V310h-1.6v-1h1.56v-1.6h1v1.6h1.56v1zm-6.54 1.2H68a2 2 0 0 0-1.2.49 1.22 1.22 0 0 0-.44 1 1.48 1.48 0 0 0 1.81 1.11 1.41 1.41 0 0 0 1.54-1.36 1.4 1.4 0 0 0-1.56-1.24zm.91-4a1.25 1.25 0 0 0-1.29-1.2h-.2a1 1 0 0 0-.61.65 1.82 1.82 0 0 0 0 1.11 1.51 1.51 0 0 0 1.23 1.26.69.69 0 0 0 .2 0 1.5 1.5 0 0 0 .67-1.85z"/><path id="google-sm" class="cls-2" d="M10 300a10 10 0 1 0 10 10 10 10 0 0 0-10-10zm-.58 14.29a3.76 3.76 0 0 1-1.57.34h-.13c-.41 0-2.44-.09-2.44-1.94s2.21-2 2.89-2a1.51 1.51 0 0 1-.31-1.05h-.12a2.22 2.22 0 0 1-1.17-.31 1.86 1.86 0 0 1-.78-1.69c0-2.22 2.42-2.31 2.45-2.31h2.42v.05c0 .27-.49.32-.82.37a2.31 2.31 0 0 0-.4.07 1.53 1.53 0 0 1 .71 1.61 2 2 0 0 1-.7 1.66.87.87 0 0 0-.4.57 1.21 1.21 0 0 0 .52.67 2.51 2.51 0 0 1 1.09 1.89 2.1 2.1 0 0 1-1.24 2.07zm5.27-4.29h-1.57v1.56h-1V310h-1.6v-1h1.56v-1.6h1v1.6h1.56v1zm-6.54 1.2H8a2 2 0 0 0-1.2.49 1.22 1.22 0 0 0-.44 1 1.48 1.48 0 0 0 1.81 1.11 1.41 1.41 0 0 0 1.54-1.36 1.4 1.4 0 0 0-1.56-1.24zm.91-4a1.25 1.25 0 0 0-1.29-1.2h-.2a1 1 0 0 0-.61.65 1.82 1.82 0 0 0 0 1.11 1.51 1.51 0 0 0 1.23 1.26.69.69 0 0 0 .2 0 1.5 1.5 0 0 0 .67-1.85z"/><path id="instagram-lg-alt" class="cls-1" d="M203.62 258a5.62 5.62 0 0 1-11.25 0 5 5 0 0 1 .09-.94h-2v7.49a.94.94 0 0 0 .94.94h13.12a.94.94 0 0 0 .94-.94v-7.49h-2a5 5 0 0 1 .16.94zm-5.62 3.75a3.75 3.75 0 1 0-3.75-3.75 3.75 3.75 0 0 0 3.75 3.75zm4.5-7.69h2.25a.56.56 0 0 0 .56-.56v-2.25a.56.56 0 0 0-.56-.56h-2.25a.56.56 0 0 0-.56.56v2.25a.57.57 0 0 0 .56.56zM198 240a18 18 0 1 0 18 18 18 18 0 0 0-18-18zm9.37 25.29a2.09 2.09 0 0 1-2.08 2.08h-14.58a2.09 2.09 0 0 1-2.08-2.08v-14.58a2.09 2.09 0 0 1 2.08-2.08h14.58a2.09 2.09 0 0 1 2.08 2.08v14.58z"/><path id="instagram-lg" class="cls-2" d="M143.62 258a5.62 5.62 0 0 1-11.25 0 5 5 0 0 1 .09-.94h-2v7.49a.94.94 0 0 0 .94.94h13.12a.94.94 0 0 0 .94-.94v-7.49h-2a5 5 0 0 1 .16.94zm-5.62 3.75a3.75 3.75 0 1 0-3.75-3.75 3.75 3.75 0 0 0 3.75 3.75zm4.5-7.69h2.25a.56.56 0 0 0 .56-.56v-2.25a.56.56 0 0 0-.56-.56h-2.25a.56.56 0 0 0-.56.56v2.25a.57.57 0 0 0 .56.56zM138 240a18 18 0 1 0 18 18 18 18 0 0 0-18-18zm9.37 25.29a2.09 2.09 0 0 1-2.08 2.08h-14.58a2.09 2.09 0 0 1-2.08-2.08v-14.58a2.09 2.09 0 0 1 2.08-2.08h14.58a2.09 2.09 0 0 1 2.08 2.08v14.58z"/><path id="instagram-sm-alt" class="cls-1" d="M73.12 250a3.12 3.12 0 1 1-6.25 0 2.77 2.77 0 0 1 .05-.52h-1.09v4.16a.52.52 0 0 0 .52.52h7.29a.52.52 0 0 0 .52-.52v-4.16h-1.09a2.77 2.77 0 0 1 .05.52zM70 252.08a2.08 2.08 0 1 0-2.08-2.08 2.08 2.08 0 0 0 2.08 2.08zm2.5-4.27h1.25a.31.31 0 0 0 .31-.31v-1.25a.31.31 0 0 0-.31-.31H72.5a.31.31 0 0 0-.31.31v1.25a.31.31 0 0 0 .31.31zM70 240a10 10 0 1 0 10 10 10 10 0 0 0-10-10zm5.21 14.05a1.16 1.16 0 0 1-1.16 1.16h-8.1a1.16 1.16 0 0 1-1.16-1.16v-8.1a1.16 1.16 0 0 1 1.16-1.16h8.1a1.16 1.16 0 0 1 1.16 1.16v8.1z"/><path id="instagram-sm" class="cls-2" d="M13.12 250a3.12 3.12 0 1 1-6.25 0 2.77 2.77 0 0 1 .05-.52H5.83v4.16a.52.52 0 0 0 .52.52h7.29a.52.52 0 0 0 .52-.52v-4.16h-1.09a2.77 2.77 0 0 1 .05.52zM10 252.08A2.08 2.08 0 1 0 7.92 250a2.08 2.08 0 0 0 2.08 2.08zm2.5-4.27h1.25a.31.31 0 0 0 .31-.31v-1.25a.31.31 0 0 0-.31-.31H12.5a.31.31 0 0 0-.31.31v1.25a.31.31 0 0 0 .31.31zM10 240a10 10 0 1 0 10 10 10 10 0 0 0-10-10zm5.21 14.05a1.16 1.16 0 0 1-1.16 1.16h-8.1a1.16 1.16 0 0 1-1.16-1.16v-8.1a1.16 1.16 0 0 1 1.16-1.16h8.1a1.16 1.16 0 0 1 1.16 1.16v8.1z"/><path id="pinterest-lg-alt" class="cls-1" d="M198 180a18 18 0 1 0 18 18 18 18 0 0 0-18-18zm1.23 22.27a5.15 5.15 0 0 1-2.54-1.21c-.5 2.61-1.1 5.11-2.9 6.42-.56-3.95.81-6.9 1.45-10-1.09-1.83.13-5.5 2.42-4.6 2.82 1.12-2.44 6.8 1.09 7.51 3.69.74 5.19-6.4 2.91-8.71-3.3-3.35-9.61-.08-8.84 4.72.19 1.17 1.4 1.53.48 3.15-2.11-.47-2.74-2.14-2.66-4.36a7.11 7.11 0 0 1 6.41-6.54c4-.44 7.72 1.46 8.23 5.21.58 4.14-1.79 8.74-6.05 8.41z"/><path id="pinterest-lg" class="cls-2" d="M138 180a18 18 0 1 0 18 18 18 18 0 0 0-18-18zm1.23 22.27a5.15 5.15 0 0 1-2.54-1.21c-.5 2.61-1.1 5.11-2.9 6.42-.56-3.95.81-6.9 1.45-10-1.09-1.83.13-5.5 2.42-4.6 2.82 1.12-2.44 6.8 1.09 7.51 3.69.74 5.19-6.4 2.91-8.71-3.3-3.35-9.61-.08-8.84 4.72.19 1.17 1.4 1.53.48 3.15-2.11-.47-2.74-2.14-2.66-4.36a7.11 7.11 0 0 1 6.41-6.54c4-.44 7.72 1.46 8.23 5.21.58 4.14-1.79 8.74-6.05 8.41z"/><path id="pinterest-sm-alt" class="cls-1" d="M70 180a10 10 0 1 0 10 10 10 10 0 0 0-10-10zm.68 12.37a2.86 2.86 0 0 1-1.41-.67c-.28 1.45-.61 2.84-1.61 3.56-.31-2.19.45-3.84.81-5.58-.6-1 .07-3.06 1.34-2.56 1.57.62-1.36 3.78.61 4.17s2.88-3.55 1.61-4.84c-1.84-1.86-5.34 0-4.91 2.62.1.65.78.85.27 1.75-1.17-.26-1.52-1.19-1.48-2.42a4 4 0 0 1 3.56-3.63c2.21-.25 4.29.81 4.57 2.89.33 2.34-1.04 4.89-3.36 4.71z"/><path id="pinterest-sm" class="cls-2" d="M10 180a10 10 0 1 0 10 10 10 10 0 0 0-10-10zm.68 12.37a2.86 2.86 0 0 1-1.41-.67c-.28 1.45-.61 2.84-1.61 3.56-.31-2.19.45-3.84.81-5.58-.6-1 .07-3.06 1.34-2.56 1.57.62-1.36 3.78.61 4.17s2.88-3.55 1.61-4.84c-1.84-1.86-5.34 0-4.91 2.62.1.65.78.85.27 1.75-1.17-.26-1.52-1.19-1.48-2.42a4 4 0 0 1 3.56-3.63c2.21-.25 4.29.81 4.57 2.89.33 2.34-1.04 4.89-3.36 4.71z"/><path id="linkedin-lg-alt" class="cls-1" d="M198 120a18 18 0 1 0 18 18 18 18 0 0 0-18-18zm-4.41 25.46h-3.65v-11.73h3.65v11.73zm-1.85-13.17a1.83 1.83 0 1 1 2-1.82 1.82 1.82 0 0 1-1.99 1.82zm15.16 13.17h-3.65V139c0-1.51-.53-2.54-1.85-2.54a2 2 0 0 0-1.87 1.36 2.58 2.58 0 0 0-.12.91v6.76h-3.65v-8c0-1.46 0-2.69-.1-3.74h3.17l.17 1.63h.07a4.22 4.22 0 0 1 3.62-1.89c2.4 0 4.2 1.61 4.2 5.06v6.94z"/><path id="linkedin-lg" class="cls-2" d="M138 120a18 18 0 1 0 18 18 18 18 0 0 0-18-18zm-4.41 25.46h-3.65v-11.73h3.65v11.73zm-1.85-13.17a1.83 1.83 0 1 1 2-1.82 1.82 1.82 0 0 1-1.99 1.82zm15.16 13.17h-3.65V139c0-1.51-.53-2.54-1.85-2.54a2 2 0 0 0-1.87 1.36 2.58 2.58 0 0 0-.12.91v6.76h-3.65v-8c0-1.46 0-2.69-.1-3.74h3.17l.17 1.63h.07a4.22 4.22 0 0 1 3.62-1.89c2.4 0 4.2 1.61 4.2 5.06v6.94z"/><path id="linkedin-sm-alt" class="cls-1" d="M70 120a10 10 0 1 0 10 10 10 10 0 0 0-10-10zm-2.45 14.14h-2v-6.52h2v6.52zm-1-7.32a1 1 0 1 1 1.09-1 1 1 0 0 1-1.11 1.01zm8.42 7.32h-2v-3.61c0-.84-.29-1.41-1-1.41a1.11 1.11 0 0 0-1 .76 1.43 1.43 0 0 0-.07.51v3.76h-2v-4.44c0-.81 0-1.49-.05-2.08h1.76l.09.91a2.34 2.34 0 0 1 2-1.05c1.33 0 2.33.89 2.33 2.81v3.85z"/><path id="linkedin-sm" class="cls-2" d="M10 120a10 10 0 1 0 10 10 10 10 0 0 0-10-10zm-2.45 14.14h-2v-6.52h2v6.52zm-1-7.32a1 1 0 1 1 0-2 1 1 0 1 1-.02 2.01zm8.42 7.32h-2v-3.61c0-.84-.29-1.41-1-1.41a1.11 1.11 0 0 0-1 .76 1.43 1.43 0 0 0-.07.51v3.76h-2v-4.44c0-.81 0-1.49-.05-2.08h1.76l.09.91a2.34 2.34 0 0 1 2-1.05c1.33 0 2.33.89 2.33 2.81v3.85z"/><path id="twitter-lg-alt" class="cls-1" d="M198 60a18 18 0 1 0 18 18 18 18 0 0 0-18-18zm7.32 14.74v.46a10.08 10.08 0 0 1-15.52 8.5 7 7 0 0 0 .85 0 7.1 7.1 0 0 0 4.4-1.52 3.55 3.55 0 0 1-3.31-2.46 3.69 3.69 0 0 0 .67.06 3.56 3.56 0 0 0 .93-.12 3.55 3.55 0 0 1-2.84-3.48 3.56 3.56 0 0 0 1.61.44A3.55 3.55 0 0 1 191 71.9a10.08 10.08 0 0 0 7.31 3.71 3.49 3.49 0 0 1-.09-.81 3.55 3.55 0 0 1 6.13-2.42 7.12 7.12 0 0 0 2.25-.86 3.56 3.56 0 0 1-1.56 2 7.12 7.12 0 0 0 2-.56 7.19 7.19 0 0 1-1.72 1.78z"/><path id="twitter-lg" class="cls-2" d="M138 60a18 18 0 1 0 18 18 18 18 0 0 0-18-18zm7.32 14.74v.46a10.08 10.08 0 0 1-15.52 8.5 7 7 0 0 0 .85 0 7.1 7.1 0 0 0 4.4-1.52 3.55 3.55 0 0 1-3.31-2.46 3.69 3.69 0 0 0 .67.06 3.56 3.56 0 0 0 .93-.12 3.55 3.55 0 0 1-2.84-3.48 3.56 3.56 0 0 0 1.61.44A3.55 3.55 0 0 1 131 71.9a10.08 10.08 0 0 0 7.31 3.71 3.49 3.49 0 0 1-.09-.81 3.55 3.55 0 0 1 6.13-2.42 7.12 7.12 0 0 0 2.25-.86 3.56 3.56 0 0 1-1.56 2 7.12 7.12 0 0 0 2-.56 7.19 7.19 0 0 1-1.72 1.78z"/><path id="twitter-sm-alt" class="cls-1" d="M70 60a10 10 0 1 0 10 10 10 10 0 0 0-10-10zm4.07 8.19v.25a5.6 5.6 0 0 1-8.62 4.72 3.87 3.87 0 0 0 .47 0 3.94 3.94 0 0 0 2.45-.84A2 2 0 0 1 66.53 71a2.05 2.05 0 0 0 .37 0 2 2 0 0 0 .52-.07A2 2 0 0 1 65.84 69a2 2 0 0 0 .89.25 2 2 0 0 1-.61-2.63 5.6 5.6 0 0 0 4.06 2.06 1.94 1.94 0 0 1-.05-.45 2 2 0 0 1 3.41-1.35 4 4 0 0 0 1.25-.48 2 2 0 0 1-.87 1.09 4 4 0 0 0 1.08-.32 4 4 0 0 1-.93 1.02z"/><path id="twitter-sm" class="cls-2" d="M10 60a10 10 0 1 0 10 10 10 10 0 0 0-10-10zm4.07 8.19v.25a5.6 5.6 0 0 1-8.62 4.72 3.87 3.87 0 0 0 .47 0 3.94 3.94 0 0 0 2.45-.84A2 2 0 0 1 6.53 71a2.05 2.05 0 0 0 .37 0 2 2 0 0 0 .52-.07A2 2 0 0 1 5.84 69a2 2 0 0 0 .89.25 2 2 0 0 1-.61-2.63 5.6 5.6 0 0 0 4.06 2.06 1.94 1.94 0 0 1-.05-.45 2 2 0 0 1 3.41-1.35 4 4 0 0 0 1.25-.48 2 2 0 0 1-.87 1.09 4 4 0 0 0 1.08-.32 4 4 0 0 1-.93 1.02z"/><path id="facebook-lg-alt" class="cls-1" d="M198 0a18 18 0 1 0 18 18 18 18 0 0 0-18-18zm4.26 12.44h-2.71a.91.91 0 0 0-.68 1v2h3.38l-.51 2.79h-2.87v8.36h-3.19v-8.43h-2.9v-2.78h2.9v-1.64a4 4 0 0 1 3.87-4.26h2.71v3z"/><path id="facebook-lg" class="cls-2" d="M138 0a18 18 0 1 0 18 18 18 18 0 0 0-18-18zm4.26 12.44h-2.71a.91.91 0 0 0-.68 1v2h3.38l-.51 2.79h-2.87v8.36h-3.19v-8.43h-2.9v-2.78h2.9v-1.64a4 4 0 0 1 3.87-4.26h2.71v3z"/><path id="facebook-sm-alt" class="cls-1" d="M70 0a10 10 0 1 0 10 10A10 10 0 0 0 70 0zm2.37 6.91h-1.5a.5.5 0 0 0-.38.55v1.08h1.88l-.28 1.55h-1.6v4.65h-1.77v-4.65h-1.61V8.54h1.61v-.91a2.23 2.23 0 0 1 2.15-2.37h1.5v1.65z"/><path id="facebook-sm" class="cls-2" d="M10 0a10 10 0 1 0 10 10A10 10 0 0 0 10 0zm2.37 6.91h-1.5a.5.5 0 0 0-.38.55v1.08h1.88l-.28 1.55h-1.6v4.65H8.72v-4.65H7.11V8.54h1.61v-.91a2.23 2.23 0 0 1 2.15-2.37h1.5v1.65z"/></svg>